<?xml version="1.0" encoding="UTF-8"?>
<svg width="458px" height="294px" viewBox="0 0 458 294" version="1.1" xmlns="http://www.w3.org/2000/svg" xmlns:xlink="http://www.w3.org/1999/xlink">
    <title>logo_dark</title>
    <g id="Page-1" stroke="none" stroke-width="1" fill="none" fill-rule="evenodd">
        <g id="logo_dark" transform="translate(0.000000, 0.045819)" fill-rule="nonzero">
            <path d="M226.84,5.66418108 L226.84,5.66418108 C226.816692,4.7021204 226.555593,3.76079052 226.08,2.92418108 L226.08,2.92418108 L226.08,2.92418108 C225.037417,1.114923 223.108156,0 221.02,0 C218.931844,0 217.002583,1.114923 215.96,2.92418108 L215.96,2.92418108 L157.49,104.104181 L114.71,178.204181 L114.71,178.204181 C115.201413,177.369422 115.887627,176.666052 116.71,176.154181 L116.71,176.154181 L203.99,123.094181 L229.12,107.824181 L226.84,5.66418108 Z" id="Path" fill="#F4364C"></path>
            <path d="M319.42,186.254181 L319.42,186.254181 L229.82,137.194181 L204.02,123.064181 L116.74,176.124181 L116.74,176.124181 C115.917627,176.636052 115.231413,177.339422 114.74,178.174181 L114.74,178.174181 C114.226437,179.057803 113.957228,180.062159 113.959979,181.084181 C113.957345,182.634777 114.571456,184.122774 115.666957,185.220151 C116.762457,186.317527 118.249402,186.934183 119.8,186.934181 L322.25,186.934181 C321.264058,186.953069 320.289727,186.718955 319.42,186.254181 Z" id="Path" fill="#3C539A"></path>
            <path d="M327.29,178.214181 L327.29,178.214181 L226.08,2.87418108 L226.08,2.87418108 C226.555593,3.71079052 226.816692,4.6521204 226.84,5.61418108 L226.84,5.61418108 L229.15,107.744181 L229.82,137.144181 L319.42,186.204181 L319.42,186.204181 C320.277109,186.677907 321.240689,186.924194 322.22,186.924194 C324.308648,186.928623 326.240657,185.81728 327.286904,184.009564 C328.33315,182.201848 328.334331,179.973004 327.29,178.164181 L327.29,178.214181 Z" id="Path" fill="#00B2A9"></path>
            <path d="M0,233.554181 L22.08,233.554181 C35.38,233.554181 44.14,240.624181 44.14,252.244181 L44.14,252.374181 C44.14,265.084181 33.53,271.654181 20.98,271.654181 L6.65,271.654181 L6.65,292.454181 L0,292.454181 L0,233.554181 Z M21.22,265.634181 C30.98,265.634181 37.38,260.414181 37.38,252.634181 L37.38,252.474181 C37.38,244.054181 31.07,239.674181 21.55,239.674181 L6.65,239.674181 L6.65,265.604181 L21.22,265.634181 Z" id="Shape" fill="#FFFFFF"></path>
            <path d="M68.86,233.554181 L94.2,233.554181 C101.44,233.554181 107.2,235.744181 110.96,239.454181 C113.955661,242.56734 115.589191,246.744715 115.5,251.064181 L115.5,251.234181 C115.5,261.004181 108.77,266.724181 99.5,268.414181 L117.61,292.494181 L109.44,292.494181 L92.35,269.594181 L75.51,269.594181 L75.51,292.494181 L68.86,292.494181 L68.86,233.554181 Z M93.61,263.614181 C102.45,263.614181 108.77,259.064181 108.77,251.494181 L108.77,251.374181 C108.77,244.134181 103.21,239.754181 93.7,239.754181 L75.51,239.754181 L75.51,263.664181 L93.61,263.614181 Z" id="Shape" fill="#FFFFFF"></path>
            <polygon id="Path" fill="#FFFFFF" points="142.94 233.554181 149.59 233.554181 149.59 292.494181 142.94 292.494181"></polygon>
            <path d="M175.6,283.904181 L179.72,279.024181 C185.87,284.574181 191.72,287.354181 199.93,287.354181 C207.84,287.354181 213.06,283.144181 213.06,277.354181 L213.06,277.184181 C213.06,271.714181 210.12,268.604181 197.74,265.994181 C184.19,262.994181 177.96,258.664181 177.96,248.994181 L177.96,248.824181 C177.96,239.564181 186.12,232.744181 197.32,232.744181 C204.892023,232.507306 212.284847,235.074852 218.08,239.954181 L214.21,245.094181 C208.74,240.624181 203.21,238.694181 197.21,238.694181 C189.55,238.694181 184.67,242.904181 184.67,248.204181 L184.67,248.374181 C184.67,253.934181 187.67,257.044181 200.67,259.824181 C213.81,262.684181 219.87,267.484181 219.87,276.494181 L219.87,276.664181 C219.87,286.764181 211.45,293.334556 199.75,293.334556 C190.33,293.374181 182.67,290.214181 175.6,283.904181 Z" id="Path" fill="#FFFFFF"></path>
            <polygon id="Path" fill="#FFFFFF" points="245.98 233.554181 252.71 233.554181 274.18 265.714181 295.65 233.554181 302.39 233.554181 302.39 292.494181 295.73 292.494181 295.73 244.754181 274.26 276.374181 273.93 276.374181 252.46 244.884181 252.46 292.544181 245.98 292.544181"></polygon>
            <polygon id="Path" fill="#3C539A" points="330.41 233.554181 343.41 233.554181 343.41 256.874181 367.32 256.874181 367.32 233.554181 380.32 233.554181 380.32 292.494181 367.32 292.494181 367.32 268.834181 343.38 268.834181 343.38 292.494181 330.38 292.494181"></polygon>
            <path d="M407.02,233.554181 L433.96,233.554181 C441.45,233.554181 447.26,235.664181 451.13,239.554181 C454.42,242.834181 456.13,247.464181 456.13,253.024181 L456.13,253.194181 C456.13,262.704181 451,268.684181 443.51,271.464181 L457.9,292.464181 L442.75,292.464181 L430.12,273.604181 L419.98,273.604181 L419.98,292.464181 L406.98,292.464181 L407.02,233.554181 Z M433.12,262.184181 C439.43,262.184181 443.05,258.814181 443.05,253.844181 L443.05,253.674181 C443.05,248.124181 439.18,245.264181 432.86,245.264181 L419.98,245.264181 L419.98,262.184181 L433.12,262.184181 Z" id="Shape" fill="#3C539A"></path>
        </g>
    </g>
</svg>