<svg id="Layer_1" data-name="Layer 1" xmlns="http://www.w3.org/2000/svg" viewBox="0 0 457.95 293.38"><defs><style>.cls-1{fill:#f4364c;}.cls-2{fill:#3c539a;}.cls-3{fill:#00b2a9;}.cls-4{fill:#63666a;}</style></defs><path class="cls-1" d="M957.76,399.29v0a5.83,5.83,0,0,0-.76-2.74v0h0a5.84,5.84,0,0,0-10.12,0h0L888.41,497.73l-42.78,74.1h0a6,6,0,0,1,2-2.05l0,0,87.28-53.06,25.13-15.27Z" transform="translate(-730.92 -393.58)"/><path class="cls-2" d="M1050.34,579.88h0l-89.6-49.06-25.8-14.13-87.28,53.06,0,0a6,6,0,0,0-2,2.05h0a5.76,5.76,0,0,0-.78,2.91,5.84,5.84,0,0,0,5.84,5.85h202.45A5.77,5.77,0,0,1,1050.34,579.88Z" transform="translate(-730.92 -393.58)"/><path class="cls-3" d="M1058.21,571.84h0L957,396.5v0a5.83,5.83,0,0,1,.76,2.74v0l2.31,102.13.67,29.4,89.6,49.06h0a5.77,5.77,0,0,0,2.8.72,5.84,5.84,0,0,0,5.07-8.76Z" transform="translate(-730.92 -393.58)"/><path class="cls-4" d="M730.92,627.18H753c13.3,0,22.06,7.07,22.06,18.69V646c0,12.71-10.61,19.28-23.16,19.28H737.57v20.8h-6.65Zm21.22,32.08c9.76,0,16.16-5.22,16.16-13v-.16c0-8.42-6.31-12.8-15.83-12.8h-14.9v25.93Z" transform="translate(-730.92 -393.58)"/><path class="cls-4" d="M799.78,627.18h25.34c7.24,0,13,2.19,16.76,5.9a16.26,16.26,0,0,1,4.54,11.61v.17c0,9.77-6.73,15.49-16,17.18l18.11,24.08h-8.17l-17.09-22.9H806.43v22.9h-6.65Zm24.75,30.06c8.84,0,15.16-4.55,15.16-12.12V645c0-7.24-5.56-11.62-15.07-11.62H806.43v23.91Z" transform="translate(-730.92 -393.58)"/><path class="cls-4" d="M873.86,627.18h6.65v58.94h-6.65Z" transform="translate(-730.92 -393.58)"/><path class="cls-4" d="M906.52,677.53l4.12-4.88c6.15,5.55,12,8.33,20.21,8.33,7.91,0,13.13-4.21,13.13-10v-.17c0-5.47-2.94-8.58-15.32-11.19-13.55-3-19.78-7.33-19.78-17v-.17c0-9.26,8.16-16.08,19.36-16.08A30.74,30.74,0,0,1,949,633.58l-3.87,5.14c-5.47-4.47-11-6.4-17-6.4-7.66,0-12.54,4.21-12.54,9.51V642c0,5.56,3,8.67,16,11.45,13.14,2.86,19.2,7.66,19.2,16.67v.17c0,10.1-8.42,16.67-20.12,16.67C921.25,687,913.59,683.84,906.52,677.53Z" transform="translate(-730.92 -393.58)"/><path class="cls-4" d="M976.9,627.18h6.73l21.47,32.16,21.47-32.16h6.74v58.94h-6.66V638.38L1005.18,670h-.33l-21.47-31.49v47.66H976.9Z" transform="translate(-730.92 -393.58)"/><path class="cls-2" d="M1061.33,627.18h13V650.5h23.91V627.18h13v58.94h-13V662.46H1074.3v23.66h-13Z" transform="translate(-730.92 -393.58)"/><path class="cls-2" d="M1137.94,627.18h26.94c7.49,0,13.3,2.11,17.17,6,3.29,3.28,5,7.91,5,13.47v.17c0,9.51-5.13,15.49-12.62,18.27l14.39,21h-15.15l-12.63-18.86H1150.9v18.86h-13Zm26.1,28.63c6.31,0,9.93-3.37,9.93-8.34v-.17c0-5.55-3.87-8.41-10.19-8.41H1150.9v16.92Z" transform="translate(-730.92 -393.58)"/></svg>